<?xml version="1.0"?>
<svg xmlns="http://www.w3.org/2000/svg" viewBox="0 0 64 64" width="512" height="512"><path d="m26 34 5.185 16h15.815l5-16z" fill="#17afdc"/><path d="m12.37036 2-10.37036 10 17.62964 18h10.37036v-10zm13.62964 26a2 2 0 1 1 2-2 2 2 0 0 1 -2 2z" fill="#fccc38"/><path d="m20 44h-6.429l-11.571 11.333 6.429 6.667 11.571-11.333z" fill="#ff7f00"/><path d="m41 22h7.143l12.857-12.593-7.143-7.407-12.857 12.593z" fill="#f4393d"/><path d="m49.375 34-4.375 14h-14.463l.648 2h15.815l5-16z" fill="#0896b7"/><path d="m32 38h12v2h-12z" fill="#077ea8"/><path d="m33 42h10v2h-10z" fill="#077ea8"/><path d="m48.75684 16.99854a2.75562 2.75562 0 0 1 -1.94922-4.70554l1.41406 1.414a.75734.75734 0 1 0 1.07129 1.0708c.27051-.27.31543-.36963-.17871-1.31152-.44824-.85352-1.19824-2.28223.17871-3.65869a2.7573 2.7573 0 1 1 3.89941 3.89941l-1.41406-1.414a.75734.75734 0 1 0 -1.07129-1.0708c-.27148.27148-.31738.37158.17774 1.31494.44726.853 1.19628 2.28076-.17774 3.65527a2.75286 2.75286 0 0 1 -1.95019.80613z" fill="#7c7c7c"/><path d="m10.96387 55.49854a2.46265 2.46265 0 0 1 -1.74219-4.20554l1.41406 1.414a.46456.46456 0 1 0 .65723.65674c.16211-.16211.19141-.19141-.17871-.89746a2.49849 2.49849 0 0 1 .17871-3.24414 2.46434 2.46434 0 1 1 3.48535 3.48486l-1.41406-1.414a.46456.46456 0 1 0 -.65723-.65674c-.16406.16357-.19336.19336.17774.90088a2.49667 2.49667 0 0 1 -.17774 3.24121 2.45621 2.45621 0 0 1 -1.74316.72019z" fill="#7c7c7c"/><path d="m22.707 21.293-1.51349-1.51349a3.33549 3.33549 0 0 0 -.58709-3.90057c-1.65918-1.66016-3.3584-.76856-4.4834-.17774-1.21485.63721-1.583.73731-2.14356.17774a1.34327 1.34327 0 1 1 1.89945-1.89994l1.41409-1.41406a3.33585 3.33585 0 0 0 -3.901-.587l-1.685-1.68494-1.414 1.414 1.68524 1.68524a3.33605 3.33605 0 0 0 .58722 3.9007c1.66113 1.6626 3.3623.76953 4.4873.1792 1.21094-.6377 1.57911-.73779 2.13965-.1792a1.34309 1.34309 0 0 1 -1.89941 1.89944l-1.41406 1.41407a3.29817 3.29817 0 0 0 3.90051.587l1.51355 1.51355z" fill="#7c7c7c"/><g fill="#828c8e"><path d="m39 26h2v2h-2z"/><path d="m39 30h2v2h-2z"/><path d="m21 34h2v2h-2z"/><path d="m21 38h2v2h-2z"/></g><path d="m57 31a1 1 0 0 0 -.93848.6543l-6.75879 20.3457h-20.30273v2h5v2.18372a3 3 0 1 0 2 0v-2.18372h9v2.18372a3 3 0 1 0 2 0v-2.18372h3a1 1 0 0 0 .93848-.6543l6.75879-20.3457h4.30273v-2z" fill="#717577"/></svg>
